<svg xmlns="http://www.w3.org/2000/svg" version="1.1" xmlns:xlink="http://www.w3.org/1999/xlink" xmlns:svgjs="http://svgjs.dev/svgjs" width="1920" height="1080" preserveAspectRatio="none" viewBox="0 0 1920 1080"><g mask="url(&quot;#SvgjsMask1327&quot;)" fill="none"><rect width="1920" height="1080" x="0" y="0" fill="url(&quot;#SvgjsLinearGradient1328&quot;)"></rect><g mask="url(&quot;#SvgjsMask1329&quot;)"><path d="M1010.5 451.5L967.5 494.5L924.5 494.5L881.5 494.5M1483.5 494.5L1440.5 451.5M1784.5 494.5L1741.5 451.5L1698.5 451.5L1655.5 451.5M1612.5 494.5L1569.5 451.5L1526.5 451.5L1483.5 451.5L1440.5 408.5L1397.5 408.5L1354.5 408.5M1053.5 451.5L1010.5 408.5L967.5 408.5L924.5 408.5M1440.5 494.5L1397.5 537.5L1354.5 537.5L1311.5 537.5M1956.5 537.5L1913.5 537.5L1870.5 494.5L1827.5 494.5L1784.5 494.5L1741.5 494.5L1698.5 494.5L1655.5 494.5L1612.5 494.5L1569.5 494.5L1526.5 494.5L1483.5 494.5L1440.5 494.5L1397.5 494.5L1354.5 494.5L1311.5 494.5L1268.5 451.5L1225.5 451.5L1182.5 451.5L1139.5 451.5L1096.5 451.5L1053.5 451.5L1010.5 451.5L967.5 451.5L924.5 451.5" stroke="rgba(255, 255, 255, 1)" stroke-width="7.17"></path><path d="M913.75 451.5 a10.75 10.75 0 1 0 21.5 0 a10.75 10.75 0 1 0 -21.5 0zM870.75 494.5 a10.75 10.75 0 1 0 21.5 0 a10.75 10.75 0 1 0 -21.5 0zM1429.75 451.5 a10.75 10.75 0 1 0 21.5 0 a10.75 10.75 0 1 0 -21.5 0zM1644.75 451.5 a10.75 10.75 0 1 0 21.5 0 a10.75 10.75 0 1 0 -21.5 0zM1343.75 408.5 a10.75 10.75 0 1 0 21.5 0 a10.75 10.75 0 1 0 -21.5 0zM913.75 408.5 a10.75 10.75 0 1 0 21.5 0 a10.75 10.75 0 1 0 -21.5 0zM1300.75 537.5 a10.75 10.75 0 1 0 21.5 0 a10.75 10.75 0 1 0 -21.5 0z" fill="rgba(255, 255, 255, 1)"></path><path d="M1913.5 580.5L1870.5 580.5M1956.5 580.5L1913.5 580.5L1870.5 623.5" stroke="rgba(255, 255, 255, 1)" stroke-width="7.17"></path><path d="M1859.75 623.5 a10.75 10.75 0 1 0 21.5 0 a10.75 10.75 0 1 0 -21.5 0zM1859.75 580.5 a10.75 10.75 0 1 0 21.5 0 a10.75 10.75 0 1 0 -21.5 0z" fill="rgba(255, 255, 255, 1)"></path><path d="M1827.5 408.5L1784.5 408.5L1741.5 408.5L1698.5 408.5M1870.5 451.5L1827.5 451.5L1784.5 451.5M1956.5 494.5L1913.5 494.5L1870.5 451.5L1827.5 408.5L1784.5 365.5L1741.5 365.5" stroke="rgba(255, 255, 255, 1)" stroke-width="7.17"></path><path d="M1730.75 365.5 a10.75 10.75 0 1 0 21.5 0 a10.75 10.75 0 1 0 -21.5 0zM1687.75 408.5 a10.75 10.75 0 1 0 21.5 0 a10.75 10.75 0 1 0 -21.5 0zM1773.75 451.5 a10.75 10.75 0 1 0 21.5 0 a10.75 10.75 0 1 0 -21.5 0z" fill="rgba(255, 255, 255, 1)"></path><path d="M1354.5 666.5L1311.5 623.5L1268.5 623.5L1225.5 580.5L1182.5 580.5L1139.5 580.5L1096.5 580.5M924.5 623.5L881.5 580.5L838.5 580.5L795.5 580.5L752.5 580.5M1483.5 666.5L1440.5 623.5L1397.5 623.5L1354.5 623.5L1311.5 580.5L1268.5 580.5L1225.5 537.5L1182.5 537.5M967.5 623.5L924.5 580.5L881.5 537.5L838.5 537.5M1827.5 666.5L1784.5 623.5L1741.5 623.5L1698.5 623.5M1612.5 666.5L1569.5 623.5L1526.5 623.5L1483.5 623.5L1440.5 580.5M1956.5 623.5L1913.5 623.5L1870.5 666.5L1827.5 666.5L1784.5 666.5L1741.5 666.5L1698.5 666.5L1655.5 666.5L1612.5 666.5L1569.5 666.5L1526.5 666.5L1483.5 666.5L1440.5 666.5L1397.5 666.5L1354.5 666.5L1311.5 666.5L1268.5 666.5L1225.5 623.5L1182.5 623.5L1139.5 623.5L1096.5 623.5L1053.5 623.5L1010.5 623.5L967.5 623.5L924.5 623.5L881.5 623.5" stroke="rgba(135, 118, 118, 1)" stroke-width="7.17"></path><path d="M870.75 623.5 a10.75 10.75 0 1 0 21.5 0 a10.75 10.75 0 1 0 -21.5 0zM1085.75 580.5 a10.75 10.75 0 1 0 21.5 0 a10.75 10.75 0 1 0 -21.5 0zM741.75 580.5 a10.75 10.75 0 1 0 21.5 0 a10.75 10.75 0 1 0 -21.5 0zM1171.75 537.5 a10.75 10.75 0 1 0 21.5 0 a10.75 10.75 0 1 0 -21.5 0zM827.75 537.5 a10.75 10.75 0 1 0 21.5 0 a10.75 10.75 0 1 0 -21.5 0zM1687.75 623.5 a10.75 10.75 0 1 0 21.5 0 a10.75 10.75 0 1 0 -21.5 0zM1429.75 580.5 a10.75 10.75 0 1 0 21.5 0 a10.75 10.75 0 1 0 -21.5 0z" fill="rgba(135, 118, 118, 1)"></path><path d="M1612.5 322.5L1569.5 365.5L1526.5 365.5L1483.5 365.5L1440.5 365.5M1655.5 322.5L1612.5 279.5L1569.5 279.5M1526.5 322.5L1483.5 279.5L1440.5 279.5L1397.5 279.5L1354.5 279.5M1956.5 451.5L1913.5 451.5L1870.5 408.5L1827.5 365.5L1784.5 322.5L1741.5 322.5L1698.5 322.5L1655.5 322.5L1612.5 322.5L1569.5 322.5L1526.5 322.5L1483.5 322.5" stroke="rgba(255, 255, 255, 1)" stroke-width="7.17"></path><path d="M1472.75 322.5 a10.75 10.75 0 1 0 21.5 0 a10.75 10.75 0 1 0 -21.5 0zM1429.75 365.5 a10.75 10.75 0 1 0 21.5 0 a10.75 10.75 0 1 0 -21.5 0zM1558.75 279.5 a10.75 10.75 0 1 0 21.5 0 a10.75 10.75 0 1 0 -21.5 0zM1343.75 279.5 a10.75 10.75 0 1 0 21.5 0 a10.75 10.75 0 1 0 -21.5 0z" fill="rgba(255, 255, 255, 1)"></path><path d="M881.5 666.5L838.5 709.5L795.5 709.5L752.5 709.5M967.5 666.5L924.5 709.5L881.5 709.5L838.5 752.5M666.5 666.5L623.5 623.5L580.5 623.5M1182.5 666.5L1139.5 709.5M709.5 666.5L666.5 709.5L623.5 709.5L580.5 709.5M838.5 666.5L795.5 623.5M1096.5 666.5L1053.5 709.5L1010.5 709.5L967.5 709.5M1268.5 709.5L1225.5 709.5L1182.5 709.5L1139.5 752.5M1956.5 666.5L1913.5 666.5L1870.5 709.5L1827.5 709.5L1784.5 709.5L1741.5 709.5L1698.5 709.5L1655.5 709.5L1612.5 709.5L1569.5 709.5L1526.5 709.5L1483.5 709.5L1440.5 709.5L1397.5 709.5L1354.5 709.5L1311.5 709.5L1268.5 709.5L1225.5 666.5L1182.5 666.5L1139.5 666.5L1096.5 666.5L1053.5 666.5L1010.5 666.5L967.5 666.5L924.5 666.5L881.5 666.5L838.5 666.5L795.5 666.5L752.5 666.5L709.5 666.5L666.5 666.5L623.5 666.5" stroke="rgba(135, 118, 118, 1)" stroke-width="7.17"></path><path d="M612.75 666.5 a10.75 10.75 0 1 0 21.5 0 a10.75 10.75 0 1 0 -21.5 0zM741.75 709.5 a10.75 10.75 0 1 0 21.5 0 a10.75 10.75 0 1 0 -21.5 0zM827.75 752.5 a10.75 10.75 0 1 0 21.5 0 a10.75 10.75 0 1 0 -21.5 0zM569.75 623.5 a10.75 10.75 0 1 0 21.5 0 a10.75 10.75 0 1 0 -21.5 0zM1128.75 709.5 a10.75 10.75 0 1 0 21.5 0 a10.75 10.75 0 1 0 -21.5 0zM569.75 709.5 a10.75 10.75 0 1 0 21.5 0 a10.75 10.75 0 1 0 -21.5 0zM784.75 623.5 a10.75 10.75 0 1 0 21.5 0 a10.75 10.75 0 1 0 -21.5 0zM956.75 709.5 a10.75 10.75 0 1 0 21.5 0 a10.75 10.75 0 1 0 -21.5 0zM1128.75 752.5 a10.75 10.75 0 1 0 21.5 0 a10.75 10.75 0 1 0 -21.5 0z" fill="rgba(135, 118, 118, 1)"></path><path d="M1956.5 408.5L1913.5 408.5" stroke="rgba(135, 118, 118, 1)" stroke-width="7.17"></path><path d="M1902.75 408.5 a10.75 10.75 0 1 0 21.5 0 a10.75 10.75 0 1 0 -21.5 0z" fill="rgba(135, 118, 118, 1)"></path><path d="M1741.5 752.5L1698.5 795.5L1655.5 795.5L1612.5 795.5L1569.5 795.5M1827.5 752.5L1784.5 795.5M1311.5 752.5L1268.5 795.5M1483.5 752.5L1440.5 752.5L1397.5 752.5M1956.5 709.5L1913.5 709.5L1870.5 752.5L1827.5 752.5L1784.5 752.5L1741.5 752.5L1698.5 752.5L1655.5 752.5L1612.5 752.5L1569.5 752.5L1526.5 752.5L1483.5 752.5L1440.5 795.5L1397.5 795.5L1354.5 752.5L1311.5 752.5L1268.5 752.5" stroke="rgba(135, 118, 118, 1)" stroke-width="7.17"></path><path d="M1257.75 752.5 a10.75 10.75 0 1 0 21.5 0 a10.75 10.75 0 1 0 -21.5 0zM1558.75 795.5 a10.75 10.75 0 1 0 21.5 0 a10.75 10.75 0 1 0 -21.5 0zM1773.75 795.5 a10.75 10.75 0 1 0 21.5 0 a10.75 10.75 0 1 0 -21.5 0zM1257.75 795.5 a10.75 10.75 0 1 0 21.5 0 a10.75 10.75 0 1 0 -21.5 0zM1386.75 752.5 a10.75 10.75 0 1 0 21.5 0 a10.75 10.75 0 1 0 -21.5 0z" fill="rgba(135, 118, 118, 1)"></path><path d="M1956.5 365.5L1913.5 365.5L1870.5 365.5L1827.5 322.5L1784.5 279.5L1741.5 279.5" stroke="rgba(135, 118, 118, 1)" stroke-width="7.17"></path><path d="M1730.75 279.5 a10.75 10.75 0 1 0 21.5 0 a10.75 10.75 0 1 0 -21.5 0z" fill="rgba(135, 118, 118, 1)"></path><path d="M1956.5 752.5L1913.5 752.5L1870.5 795.5" stroke="rgba(135, 118, 118, 1)" stroke-width="7.17"></path><path d="M1859.75 795.5 a10.75 10.75 0 1 0 21.5 0 a10.75 10.75 0 1 0 -21.5 0z" fill="rgba(135, 118, 118, 1)"></path><path d="M1698.5 236.5L1655.5 279.5M1956.5 322.5L1913.5 322.5L1870.5 322.5L1827.5 279.5L1784.5 236.5L1741.5 236.5L1698.5 236.5L1655.5 236.5" stroke="rgba(135, 118, 118, 1)" stroke-width="7.17"></path><path d="M1644.75 236.5 a10.75 10.75 0 1 0 21.5 0 a10.75 10.75 0 1 0 -21.5 0zM1644.75 279.5 a10.75 10.75 0 1 0 21.5 0 a10.75 10.75 0 1 0 -21.5 0z" fill="rgba(135, 118, 118, 1)"></path><path d="M1526.5 838.5L1483.5 795.5M1397.5 838.5L1354.5 881.5L1311.5 881.5L1268.5 881.5M1612.5 838.5L1569.5 881.5L1526.5 881.5M1483.5 838.5L1440.5 881.5M1956.5 795.5L1913.5 795.5L1870.5 838.5L1827.5 838.5L1784.5 838.5L1741.5 838.5L1698.5 838.5L1655.5 838.5L1612.5 838.5L1569.5 838.5L1526.5 838.5L1483.5 838.5L1440.5 838.5L1397.5 838.5L1354.5 838.5L1311.5 838.5" stroke="rgba(255, 255, 255, 1)" stroke-width="7.17"></path><path d="M1300.75 838.5 a10.75 10.75 0 1 0 21.5 0 a10.75 10.75 0 1 0 -21.5 0zM1472.75 795.5 a10.75 10.75 0 1 0 21.5 0 a10.75 10.75 0 1 0 -21.5 0zM1257.75 881.5 a10.75 10.75 0 1 0 21.5 0 a10.75 10.75 0 1 0 -21.5 0zM1515.75 881.5 a10.75 10.75 0 1 0 21.5 0 a10.75 10.75 0 1 0 -21.5 0zM1429.75 881.5 a10.75 10.75 0 1 0 21.5 0 a10.75 10.75 0 1 0 -21.5 0z" fill="rgba(255, 255, 255, 1)"></path><path d="M1913.5 279.5L1870.5 236.5L1827.5 193.5M1784.5 193.5L1741.5 150.5L1698.5 150.5L1655.5 150.5L1612.5 150.5M1956.5 279.5L1913.5 279.5L1870.5 279.5L1827.5 236.5L1784.5 193.5L1741.5 193.5" stroke="rgba(255, 255, 255, 1)" stroke-width="7.17"></path><path d="M1730.75 193.5 a10.75 10.75 0 1 0 21.5 0 a10.75 10.75 0 1 0 -21.5 0zM1816.75 193.5 a10.75 10.75 0 1 0 21.5 0 a10.75 10.75 0 1 0 -21.5 0zM1601.75 150.5 a10.75 10.75 0 1 0 21.5 0 a10.75 10.75 0 1 0 -21.5 0z" fill="rgba(255, 255, 255, 1)"></path></g></g><defs><mask id="SvgjsMask1327"><rect width="1920" height="1080" fill="#ffffff"></rect></mask><linearGradient x1="50%" y1="100%" x2="50%" y2="0%" gradientUnits="userSpaceOnUse" id="SvgjsLinearGradient1328"><stop stop-color="#0e2a47" offset="0"></stop><stop stop-color="rgba(61, 61, 61, 1)" offset="1"></stop></linearGradient><mask id="SvgjsMask1329"><rect width="1920" height="1080" fill="white"></rect><path d="M919.12 451.5 a5.38 5.38 0 1 0 10.76 0 a5.38 5.38 0 1 0 -10.76 0zM876.12 494.5 a5.38 5.38 0 1 0 10.76 0 a5.38 5.38 0 1 0 -10.76 0zM1435.12 451.5 a5.38 5.38 0 1 0 10.76 0 a5.38 5.38 0 1 0 -10.76 0zM1650.12 451.5 a5.38 5.38 0 1 0 10.76 0 a5.38 5.38 0 1 0 -10.76 0zM1349.12 408.5 a5.38 5.38 0 1 0 10.76 0 a5.38 5.38 0 1 0 -10.76 0zM919.12 408.5 a5.38 5.38 0 1 0 10.76 0 a5.38 5.38 0 1 0 -10.76 0zM1306.12 537.5 a5.38 5.38 0 1 0 10.76 0 a5.38 5.38 0 1 0 -10.76 0z" fill="black"></path><path d="M1865.12 623.5 a5.38 5.38 0 1 0 10.76 0 a5.38 5.38 0 1 0 -10.76 0zM1865.12 580.5 a5.38 5.38 0 1 0 10.76 0 a5.38 5.38 0 1 0 -10.76 0z" fill="black"></path><path d="M1736.12 365.5 a5.38 5.38 0 1 0 10.76 0 a5.38 5.38 0 1 0 -10.76 0zM1693.12 408.5 a5.38 5.38 0 1 0 10.76 0 a5.38 5.38 0 1 0 -10.76 0zM1779.12 451.5 a5.38 5.38 0 1 0 10.76 0 a5.38 5.38 0 1 0 -10.76 0z" fill="black"></path><path d="M876.12 623.5 a5.38 5.38 0 1 0 10.76 0 a5.38 5.38 0 1 0 -10.76 0zM1091.12 580.5 a5.38 5.38 0 1 0 10.76 0 a5.38 5.38 0 1 0 -10.76 0zM747.12 580.5 a5.38 5.38 0 1 0 10.76 0 a5.38 5.38 0 1 0 -10.76 0zM1177.12 537.5 a5.38 5.38 0 1 0 10.76 0 a5.38 5.38 0 1 0 -10.76 0zM833.12 537.5 a5.38 5.38 0 1 0 10.76 0 a5.38 5.38 0 1 0 -10.76 0zM1693.12 623.5 a5.38 5.38 0 1 0 10.76 0 a5.38 5.38 0 1 0 -10.76 0zM1435.12 580.5 a5.38 5.38 0 1 0 10.76 0 a5.38 5.38 0 1 0 -10.76 0z" fill="black"></path><path d="M1478.12 322.5 a5.38 5.38 0 1 0 10.76 0 a5.38 5.38 0 1 0 -10.76 0zM1435.12 365.5 a5.38 5.38 0 1 0 10.76 0 a5.38 5.38 0 1 0 -10.76 0zM1564.12 279.5 a5.38 5.38 0 1 0 10.76 0 a5.38 5.38 0 1 0 -10.76 0zM1349.12 279.5 a5.38 5.38 0 1 0 10.76 0 a5.38 5.38 0 1 0 -10.76 0z" fill="black"></path><path d="M618.12 666.5 a5.38 5.38 0 1 0 10.76 0 a5.38 5.38 0 1 0 -10.76 0zM747.12 709.5 a5.38 5.38 0 1 0 10.76 0 a5.38 5.38 0 1 0 -10.76 0zM833.12 752.5 a5.38 5.38 0 1 0 10.76 0 a5.38 5.38 0 1 0 -10.76 0zM575.12 623.5 a5.38 5.38 0 1 0 10.76 0 a5.38 5.38 0 1 0 -10.76 0zM1134.12 709.5 a5.38 5.38 0 1 0 10.76 0 a5.38 5.38 0 1 0 -10.76 0zM575.12 709.5 a5.38 5.38 0 1 0 10.76 0 a5.38 5.38 0 1 0 -10.76 0zM790.12 623.5 a5.38 5.38 0 1 0 10.76 0 a5.38 5.38 0 1 0 -10.76 0zM962.12 709.5 a5.38 5.38 0 1 0 10.76 0 a5.38 5.38 0 1 0 -10.76 0zM1134.12 752.5 a5.38 5.38 0 1 0 10.76 0 a5.38 5.38 0 1 0 -10.76 0z" fill="black"></path><path d="M1908.12 408.5 a5.38 5.38 0 1 0 10.76 0 a5.38 5.38 0 1 0 -10.76 0z" fill="black"></path><path d="M1263.12 752.5 a5.38 5.38 0 1 0 10.76 0 a5.38 5.38 0 1 0 -10.76 0zM1564.12 795.5 a5.38 5.38 0 1 0 10.76 0 a5.38 5.38 0 1 0 -10.76 0zM1779.12 795.5 a5.38 5.38 0 1 0 10.76 0 a5.38 5.38 0 1 0 -10.76 0zM1263.12 795.5 a5.38 5.38 0 1 0 10.76 0 a5.38 5.38 0 1 0 -10.76 0zM1392.12 752.5 a5.38 5.38 0 1 0 10.76 0 a5.38 5.38 0 1 0 -10.76 0z" fill="black"></path><path d="M1736.12 279.5 a5.38 5.38 0 1 0 10.76 0 a5.38 5.38 0 1 0 -10.76 0z" fill="black"></path><path d="M1865.12 795.5 a5.38 5.38 0 1 0 10.76 0 a5.38 5.38 0 1 0 -10.76 0z" fill="black"></path><path d="M1650.12 236.5 a5.38 5.38 0 1 0 10.76 0 a5.38 5.38 0 1 0 -10.76 0zM1650.12 279.5 a5.38 5.38 0 1 0 10.76 0 a5.38 5.38 0 1 0 -10.76 0z" fill="black"></path><path d="M1306.12 838.5 a5.38 5.38 0 1 0 10.76 0 a5.38 5.38 0 1 0 -10.76 0zM1478.12 795.5 a5.38 5.38 0 1 0 10.76 0 a5.38 5.38 0 1 0 -10.76 0zM1263.12 881.5 a5.38 5.38 0 1 0 10.76 0 a5.38 5.38 0 1 0 -10.76 0zM1521.12 881.5 a5.38 5.38 0 1 0 10.76 0 a5.38 5.38 0 1 0 -10.76 0zM1435.12 881.5 a5.38 5.38 0 1 0 10.76 0 a5.38 5.38 0 1 0 -10.76 0z" fill="black"></path><path d="M1736.12 193.5 a5.38 5.38 0 1 0 10.76 0 a5.38 5.38 0 1 0 -10.76 0zM1822.12 193.5 a5.38 5.38 0 1 0 10.76 0 a5.38 5.38 0 1 0 -10.76 0zM1607.12 150.5 a5.38 5.38 0 1 0 10.76 0 a5.38 5.38 0 1 0 -10.76 0z" fill="black"></path></mask></defs></svg>