<svg xmlns="http://www.w3.org/2000/svg" version="1.1" xmlns:xlink="http://www.w3.org/1999/xlink" xmlns:svgjs="http://svgjs.dev/svgjs" width="1920" height="1080" preserveAspectRatio="none" viewBox="0 0 1920 1080"><g mask="url(&quot;#SvgjsMask1905&quot;)" fill="none"><rect width="1920" height="1080" x="0" y="0" fill="url(&quot;#SvgjsLinearGradient1906&quot;)"></rect><g mask="url(&quot;#SvgjsMask1907&quot;)"><path d="M1569.5 580.5L1526.5 537.5M1440.5 580.5L1397.5 537.5L1354.5 537.5L1311.5 537.5L1268.5 537.5M1655.5 580.5L1612.5 537.5L1569.5 494.5M1956.5 537.5L1913.5 537.5L1870.5 580.5L1827.5 580.5L1784.5 580.5L1741.5 580.5L1698.5 580.5L1655.5 580.5L1612.5 580.5L1569.5 580.5L1526.5 580.5L1483.5 580.5L1440.5 580.5L1397.5 580.5L1354.5 580.5" stroke="rgba(255, 255, 255, 1)" stroke-width="7.17"></path><path d="M1343.75 580.5 a10.75 10.75 0 1 0 21.5 0 a10.75 10.75 0 1 0 -21.5 0zM1515.75 537.5 a10.75 10.75 0 1 0 21.5 0 a10.75 10.75 0 1 0 -21.5 0zM1257.75 537.5 a10.75 10.75 0 1 0 21.5 0 a10.75 10.75 0 1 0 -21.5 0zM1558.75 494.5 a10.75 10.75 0 1 0 21.5 0 a10.75 10.75 0 1 0 -21.5 0z" fill="rgba(255, 255, 255, 1)"></path><path d="M1956.5 580.5L1913.5 580.5L1870.5 623.5L1827.5 623.5L1784.5 623.5L1741.5 623.5L1698.5 623.5L1655.5 623.5L1612.5 623.5L1569.5 623.5L1526.5 623.5L1483.5 623.5L1440.5 623.5L1397.5 623.5" stroke="#3a7cc3" stroke-width="7.17"></path><path d="M1386.75 623.5 a10.75 10.75 0 1 0 21.5 0 a10.75 10.75 0 1 0 -21.5 0z" fill="#3a7cc3"></path><path d="M1741.5 494.5L1698.5 537.5L1655.5 537.5L1612.5 494.5M1784.5 494.5L1741.5 537.5M1827.5 494.5L1784.5 537.5M1956.5 494.5L1913.5 494.5L1870.5 494.5L1827.5 494.5L1784.5 494.5L1741.5 494.5L1698.5 494.5" stroke="#3a7cc3" stroke-width="7.17"></path><path d="M1687.75 494.5 a10.75 10.75 0 1 0 21.5 0 a10.75 10.75 0 1 0 -21.5 0zM1601.75 494.5 a10.75 10.75 0 1 0 21.5 0 a10.75 10.75 0 1 0 -21.5 0zM1730.75 537.5 a10.75 10.75 0 1 0 21.5 0 a10.75 10.75 0 1 0 -21.5 0zM1773.75 537.5 a10.75 10.75 0 1 0 21.5 0 a10.75 10.75 0 1 0 -21.5 0z" fill="#3a7cc3"></path><path d="M1268.5 666.5L1225.5 623.5L1182.5 623.5M1354.5 666.5L1311.5 623.5L1268.5 623.5M1483.5 666.5L1440.5 709.5L1397.5 709.5M1096.5 623.5L1053.5 666.5L1010.5 666.5L967.5 666.5L924.5 666.5L881.5 666.5M1526.5 666.5L1483.5 709.5M1956.5 623.5L1913.5 623.5L1870.5 666.5L1827.5 666.5L1784.5 666.5L1741.5 666.5L1698.5 666.5L1655.5 666.5L1612.5 666.5L1569.5 666.5L1526.5 666.5L1483.5 666.5L1440.5 666.5L1397.5 666.5L1354.5 666.5L1311.5 666.5L1268.5 666.5L1225.5 666.5L1182.5 666.5L1139.5 666.5L1096.5 623.5L1053.5 623.5L1010.5 623.5" stroke="rgba(255, 255, 255, 1)" stroke-width="7.17"></path><path d="M999.75 623.5 a10.75 10.75 0 1 0 21.5 0 a10.75 10.75 0 1 0 -21.5 0zM1171.75 623.5 a10.75 10.75 0 1 0 21.5 0 a10.75 10.75 0 1 0 -21.5 0zM1257.75 623.5 a10.75 10.75 0 1 0 21.5 0 a10.75 10.75 0 1 0 -21.5 0zM1386.75 709.5 a10.75 10.75 0 1 0 21.5 0 a10.75 10.75 0 1 0 -21.5 0zM870.75 666.5 a10.75 10.75 0 1 0 21.5 0 a10.75 10.75 0 1 0 -21.5 0zM1472.75 709.5 a10.75 10.75 0 1 0 21.5 0 a10.75 10.75 0 1 0 -21.5 0z" fill="rgba(255, 255, 255, 1)"></path><path d="M1440.5 408.5L1397.5 365.5M1053.5 451.5L1010.5 494.5L967.5 494.5L924.5 494.5L881.5 494.5L838.5 494.5L795.5 494.5M1612.5 408.5L1569.5 451.5M1139.5 408.5L1096.5 408.5L1053.5 408.5L1010.5 408.5L967.5 408.5L924.5 451.5L881.5 451.5M1397.5 408.5L1354.5 451.5L1311.5 451.5L1268.5 451.5L1225.5 451.5L1182.5 451.5M1956.5 451.5L1913.5 451.5L1870.5 451.5L1827.5 451.5L1784.5 451.5L1741.5 451.5L1698.5 451.5L1655.5 451.5L1612.5 408.5L1569.5 408.5L1526.5 408.5L1483.5 408.5L1440.5 408.5L1397.5 408.5L1354.5 408.5L1311.5 408.5L1268.5 408.5L1225.5 408.5L1182.5 408.5L1139.5 408.5L1096.5 451.5L1053.5 451.5L1010.5 451.5" stroke="#3a7cc3" stroke-width="7.17"></path><path d="M999.75 451.5 a10.75 10.75 0 1 0 21.5 0 a10.75 10.75 0 1 0 -21.5 0zM1386.75 365.5 a10.75 10.75 0 1 0 21.5 0 a10.75 10.75 0 1 0 -21.5 0zM784.75 494.5 a10.75 10.75 0 1 0 21.5 0 a10.75 10.75 0 1 0 -21.5 0zM1558.75 451.5 a10.75 10.75 0 1 0 21.5 0 a10.75 10.75 0 1 0 -21.5 0zM870.75 451.5 a10.75 10.75 0 1 0 21.5 0 a10.75 10.75 0 1 0 -21.5 0zM1171.75 451.5 a10.75 10.75 0 1 0 21.5 0 a10.75 10.75 0 1 0 -21.5 0z" fill="#3a7cc3"></path><path d="M1956.5 666.5L1913.5 666.5L1870.5 709.5L1827.5 709.5L1784.5 709.5L1741.5 709.5L1698.5 709.5L1655.5 709.5L1612.5 709.5" stroke="rgba(255, 255, 255, 1)" stroke-width="7.17"></path><path d="M1601.75 709.5 a10.75 10.75 0 1 0 21.5 0 a10.75 10.75 0 1 0 -21.5 0z" fill="rgba(255, 255, 255, 1)"></path><path d="M1784.5 408.5L1741.5 365.5M1827.5 408.5L1784.5 365.5M1698.5 408.5L1655.5 365.5M1956.5 408.5L1913.5 408.5L1870.5 408.5L1827.5 408.5L1784.5 408.5L1741.5 408.5L1698.5 408.5L1655.5 408.5L1612.5 365.5L1569.5 365.5L1526.5 365.5" stroke="#3a7cc3" stroke-width="7.17"></path><path d="M1515.75 365.5 a10.75 10.75 0 1 0 21.5 0 a10.75 10.75 0 1 0 -21.5 0zM1730.75 365.5 a10.75 10.75 0 1 0 21.5 0 a10.75 10.75 0 1 0 -21.5 0zM1773.75 365.5 a10.75 10.75 0 1 0 21.5 0 a10.75 10.75 0 1 0 -21.5 0zM1644.75 365.5 a10.75 10.75 0 1 0 21.5 0 a10.75 10.75 0 1 0 -21.5 0z" fill="#3a7cc3"></path><path d="M1182.5 709.5L1139.5 752.5L1096.5 752.5M1268.5 709.5L1225.5 752.5L1182.5 752.5L1139.5 795.5M1354.5 752.5L1311.5 709.5M1569.5 752.5L1526.5 709.5M1956.5 709.5L1913.5 709.5L1870.5 752.5L1827.5 752.5L1784.5 752.5L1741.5 752.5L1698.5 752.5L1655.5 752.5L1612.5 752.5L1569.5 752.5L1526.5 752.5L1483.5 752.5L1440.5 752.5L1397.5 752.5L1354.5 752.5L1311.5 752.5L1268.5 709.5L1225.5 709.5L1182.5 709.5L1139.5 709.5L1096.5 709.5" stroke="#3a7cc3" stroke-width="7.17"></path><path d="M1085.75 709.5 a10.75 10.75 0 1 0 21.5 0 a10.75 10.75 0 1 0 -21.5 0zM1085.75 752.5 a10.75 10.75 0 1 0 21.5 0 a10.75 10.75 0 1 0 -21.5 0zM1128.75 795.5 a10.75 10.75 0 1 0 21.5 0 a10.75 10.75 0 1 0 -21.5 0zM1300.75 709.5 a10.75 10.75 0 1 0 21.5 0 a10.75 10.75 0 1 0 -21.5 0zM1515.75 709.5 a10.75 10.75 0 1 0 21.5 0 a10.75 10.75 0 1 0 -21.5 0z" fill="#3a7cc3"></path><path d="M1956.5 365.5L1913.5 365.5" stroke="#3a7cc3" stroke-width="7.17"></path><path d="M1902.75 365.5 a10.75 10.75 0 1 0 21.5 0 a10.75 10.75 0 1 0 -21.5 0z" fill="#3a7cc3"></path><path d="M1569.5 795.5L1526.5 838.5L1483.5 838.5L1440.5 838.5L1397.5 838.5L1354.5 838.5L1311.5 881.5L1268.5 881.5M967.5 838.5L924.5 795.5L881.5 795.5M1053.5 838.5L1010.5 881.5L967.5 881.5M1182.5 838.5L1139.5 881.5L1096.5 881.5L1053.5 881.5L1010.5 924.5L967.5 924.5L924.5 924.5M1612.5 795.5L1569.5 838.5M881.5 838.5L838.5 881.5L795.5 881.5L752.5 881.5L709.5 881.5L666.5 881.5L623.5 881.5L580.5 881.5M1096.5 838.5L1053.5 795.5L1010.5 795.5L967.5 795.5L924.5 752.5L881.5 752.5M1956.5 752.5L1913.5 752.5L1870.5 795.5L1827.5 795.5L1784.5 795.5L1741.5 795.5L1698.5 795.5L1655.5 795.5L1612.5 795.5L1569.5 795.5L1526.5 795.5L1483.5 795.5L1440.5 795.5L1397.5 795.5L1354.5 795.5L1311.5 838.5L1268.5 838.5L1225.5 838.5L1182.5 838.5L1139.5 838.5L1096.5 838.5L1053.5 838.5L1010.5 838.5L967.5 838.5L924.5 838.5L881.5 838.5L838.5 838.5L795.5 838.5" stroke="rgba(255, 255, 255, 1)" stroke-width="7.17"></path><path d="M784.75 838.5 a10.75 10.75 0 1 0 21.5 0 a10.75 10.75 0 1 0 -21.5 0zM1257.75 881.5 a10.75 10.75 0 1 0 21.5 0 a10.75 10.75 0 1 0 -21.5 0zM870.75 795.5 a10.75 10.75 0 1 0 21.5 0 a10.75 10.75 0 1 0 -21.5 0zM956.75 881.5 a10.75 10.75 0 1 0 21.5 0 a10.75 10.75 0 1 0 -21.5 0zM913.75 924.5 a10.75 10.75 0 1 0 21.5 0 a10.75 10.75 0 1 0 -21.5 0zM1558.75 838.5 a10.75 10.75 0 1 0 21.5 0 a10.75 10.75 0 1 0 -21.5 0zM569.75 881.5 a10.75 10.75 0 1 0 21.5 0 a10.75 10.75 0 1 0 -21.5 0zM870.75 752.5 a10.75 10.75 0 1 0 21.5 0 a10.75 10.75 0 1 0 -21.5 0z" fill="rgba(255, 255, 255, 1)"></path><path d="M1483.5 322.5L1440.5 279.5L1397.5 279.5L1354.5 279.5L1311.5 279.5L1268.5 279.5M1526.5 322.5L1483.5 279.5M1870.5 322.5L1827.5 365.5M1956.5 322.5L1913.5 322.5L1870.5 322.5L1827.5 322.5L1784.5 322.5L1741.5 322.5L1698.5 322.5L1655.5 322.5L1612.5 322.5L1569.5 322.5L1526.5 322.5L1483.5 322.5L1440.5 322.5L1397.5 322.5" stroke="rgba(255, 255, 255, 1)" stroke-width="7.17"></path><path d="M1386.75 322.5 a10.75 10.75 0 1 0 21.5 0 a10.75 10.75 0 1 0 -21.5 0zM1257.75 279.5 a10.75 10.75 0 1 0 21.5 0 a10.75 10.75 0 1 0 -21.5 0zM1472.75 279.5 a10.75 10.75 0 1 0 21.5 0 a10.75 10.75 0 1 0 -21.5 0zM1816.75 365.5 a10.75 10.75 0 1 0 21.5 0 a10.75 10.75 0 1 0 -21.5 0z" fill="rgba(255, 255, 255, 1)"></path><path d="M1698.5 838.5L1655.5 881.5L1612.5 924.5M1870.5 838.5L1827.5 881.5L1784.5 881.5L1741.5 881.5M1655.5 838.5L1612.5 838.5M1956.5 795.5L1913.5 795.5L1870.5 838.5L1827.5 838.5L1784.5 838.5L1741.5 838.5L1698.5 838.5L1655.5 838.5L1612.5 881.5L1569.5 881.5" stroke="#3a7cc3" stroke-width="7.17"></path><path d="M1558.75 881.5 a10.75 10.75 0 1 0 21.5 0 a10.75 10.75 0 1 0 -21.5 0zM1601.75 924.5 a10.75 10.75 0 1 0 21.5 0 a10.75 10.75 0 1 0 -21.5 0zM1730.75 881.5 a10.75 10.75 0 1 0 21.5 0 a10.75 10.75 0 1 0 -21.5 0zM1601.75 838.5 a10.75 10.75 0 1 0 21.5 0 a10.75 10.75 0 1 0 -21.5 0z" fill="#3a7cc3"></path><path d="M1827.5 279.5L1784.5 236.5L1741.5 236.5L1698.5 236.5L1655.5 236.5M1913.5 279.5L1870.5 236.5M1956.5 279.5L1913.5 279.5L1870.5 279.5L1827.5 279.5L1784.5 279.5L1741.5 279.5" stroke="#3a7cc3" stroke-width="7.17"></path><path d="M1730.75 279.5 a10.75 10.75 0 1 0 21.5 0 a10.75 10.75 0 1 0 -21.5 0zM1644.75 236.5 a10.75 10.75 0 1 0 21.5 0 a10.75 10.75 0 1 0 -21.5 0zM1859.75 236.5 a10.75 10.75 0 1 0 21.5 0 a10.75 10.75 0 1 0 -21.5 0z" fill="#3a7cc3"></path></g></g><defs><mask id="SvgjsMask1905"><rect width="1920" height="1080" fill="#ffffff"></rect></mask><linearGradient x1="10.94%" y1="-19.44%" x2="89.06%" y2="119.44%" gradientUnits="userSpaceOnUse" id="SvgjsLinearGradient1906"><stop stop-color="#0e2a47" offset="0"></stop><stop stop-color="#00459e" offset="1"></stop></linearGradient><mask id="SvgjsMask1907"><rect width="1920" height="1080" fill="white"></rect><path d="M1349.12 580.5 a5.38 5.38 0 1 0 10.76 0 a5.38 5.38 0 1 0 -10.76 0zM1521.12 537.5 a5.38 5.38 0 1 0 10.76 0 a5.38 5.38 0 1 0 -10.76 0zM1263.12 537.5 a5.38 5.38 0 1 0 10.76 0 a5.38 5.38 0 1 0 -10.76 0zM1564.12 494.5 a5.38 5.38 0 1 0 10.76 0 a5.38 5.38 0 1 0 -10.76 0z" fill="black"></path><path d="M1392.12 623.5 a5.38 5.38 0 1 0 10.76 0 a5.38 5.38 0 1 0 -10.76 0z" fill="black"></path><path d="M1693.12 494.5 a5.38 5.38 0 1 0 10.76 0 a5.38 5.38 0 1 0 -10.76 0zM1607.12 494.5 a5.38 5.38 0 1 0 10.76 0 a5.38 5.38 0 1 0 -10.76 0zM1736.12 537.5 a5.38 5.38 0 1 0 10.76 0 a5.38 5.38 0 1 0 -10.76 0zM1779.12 537.5 a5.38 5.38 0 1 0 10.76 0 a5.38 5.38 0 1 0 -10.76 0z" fill="black"></path><path d="M1005.12 623.5 a5.38 5.38 0 1 0 10.76 0 a5.38 5.38 0 1 0 -10.76 0zM1177.12 623.5 a5.38 5.38 0 1 0 10.76 0 a5.38 5.38 0 1 0 -10.76 0zM1263.12 623.5 a5.38 5.38 0 1 0 10.76 0 a5.38 5.38 0 1 0 -10.76 0zM1392.12 709.5 a5.38 5.38 0 1 0 10.76 0 a5.38 5.38 0 1 0 -10.76 0zM876.12 666.5 a5.38 5.38 0 1 0 10.76 0 a5.38 5.38 0 1 0 -10.76 0zM1478.12 709.5 a5.38 5.38 0 1 0 10.76 0 a5.38 5.38 0 1 0 -10.76 0z" fill="black"></path><path d="M1005.12 451.5 a5.38 5.38 0 1 0 10.76 0 a5.38 5.38 0 1 0 -10.76 0zM1392.12 365.5 a5.38 5.38 0 1 0 10.76 0 a5.38 5.38 0 1 0 -10.76 0zM790.12 494.5 a5.38 5.38 0 1 0 10.76 0 a5.38 5.38 0 1 0 -10.76 0zM1564.12 451.5 a5.38 5.38 0 1 0 10.76 0 a5.38 5.38 0 1 0 -10.76 0zM876.12 451.5 a5.38 5.38 0 1 0 10.76 0 a5.38 5.38 0 1 0 -10.76 0zM1177.12 451.5 a5.38 5.38 0 1 0 10.76 0 a5.38 5.38 0 1 0 -10.76 0z" fill="black"></path><path d="M1607.12 709.5 a5.38 5.38 0 1 0 10.76 0 a5.38 5.38 0 1 0 -10.76 0z" fill="black"></path><path d="M1521.12 365.5 a5.38 5.38 0 1 0 10.76 0 a5.38 5.38 0 1 0 -10.76 0zM1736.12 365.5 a5.38 5.38 0 1 0 10.76 0 a5.38 5.38 0 1 0 -10.76 0zM1779.12 365.5 a5.38 5.38 0 1 0 10.76 0 a5.38 5.38 0 1 0 -10.76 0zM1650.12 365.5 a5.38 5.38 0 1 0 10.76 0 a5.38 5.38 0 1 0 -10.76 0z" fill="black"></path><path d="M1091.12 709.5 a5.38 5.38 0 1 0 10.76 0 a5.38 5.38 0 1 0 -10.76 0zM1091.12 752.5 a5.38 5.38 0 1 0 10.76 0 a5.38 5.38 0 1 0 -10.76 0zM1134.12 795.5 a5.38 5.38 0 1 0 10.76 0 a5.38 5.38 0 1 0 -10.76 0zM1306.12 709.5 a5.38 5.38 0 1 0 10.76 0 a5.38 5.38 0 1 0 -10.76 0zM1521.12 709.5 a5.38 5.38 0 1 0 10.76 0 a5.38 5.38 0 1 0 -10.76 0z" fill="black"></path><path d="M1908.12 365.5 a5.38 5.38 0 1 0 10.76 0 a5.38 5.38 0 1 0 -10.76 0z" fill="black"></path><path d="M790.12 838.5 a5.38 5.38 0 1 0 10.76 0 a5.38 5.38 0 1 0 -10.76 0zM1263.12 881.5 a5.38 5.38 0 1 0 10.76 0 a5.38 5.38 0 1 0 -10.76 0zM876.12 795.5 a5.38 5.38 0 1 0 10.76 0 a5.38 5.38 0 1 0 -10.76 0zM962.12 881.5 a5.38 5.38 0 1 0 10.76 0 a5.38 5.38 0 1 0 -10.76 0zM919.12 924.5 a5.38 5.38 0 1 0 10.76 0 a5.38 5.38 0 1 0 -10.76 0zM1564.12 838.5 a5.38 5.38 0 1 0 10.76 0 a5.38 5.38 0 1 0 -10.76 0zM575.12 881.5 a5.38 5.38 0 1 0 10.76 0 a5.38 5.38 0 1 0 -10.76 0zM876.12 752.5 a5.38 5.38 0 1 0 10.76 0 a5.38 5.38 0 1 0 -10.76 0z" fill="black"></path><path d="M1392.12 322.5 a5.38 5.38 0 1 0 10.76 0 a5.38 5.38 0 1 0 -10.76 0zM1263.12 279.5 a5.38 5.38 0 1 0 10.76 0 a5.38 5.38 0 1 0 -10.76 0zM1478.12 279.5 a5.38 5.38 0 1 0 10.76 0 a5.38 5.38 0 1 0 -10.76 0zM1822.12 365.5 a5.38 5.38 0 1 0 10.76 0 a5.38 5.38 0 1 0 -10.76 0z" fill="black"></path><path d="M1564.12 881.5 a5.38 5.38 0 1 0 10.76 0 a5.38 5.38 0 1 0 -10.76 0zM1607.12 924.5 a5.38 5.38 0 1 0 10.76 0 a5.38 5.38 0 1 0 -10.76 0zM1736.12 881.5 a5.38 5.38 0 1 0 10.76 0 a5.38 5.38 0 1 0 -10.76 0zM1607.12 838.5 a5.38 5.38 0 1 0 10.76 0 a5.38 5.38 0 1 0 -10.76 0z" fill="black"></path><path d="M1736.12 279.5 a5.38 5.38 0 1 0 10.76 0 a5.38 5.38 0 1 0 -10.76 0zM1650.12 236.5 a5.38 5.38 0 1 0 10.76 0 a5.38 5.38 0 1 0 -10.76 0zM1865.12 236.5 a5.38 5.38 0 1 0 10.76 0 a5.38 5.38 0 1 0 -10.76 0z" fill="black"></path></mask></defs></svg>